<svg xmlns="http://www.w3.org/2000/svg" width="800" height="500" viewBox="0 0 800 500"><defs><linearGradient id="bg" x1="0" x2="1" y1="0" y2="1"><stop stop-color="#0c0b09"/><stop offset=".5" stop-color="#25190f"/><stop offset="1" stop-color="#1f4d7a"/></linearGradient><filter id="shadow"><feDropShadow dx="0" dy="18" stdDeviation="18" flood-opacity=".45"/></filter></defs><rect width="800" height="500" fill="url(#bg)"/><circle cx="700" cy="80" r="160" fill="#9ed0ff" opacity=".16"/><g filter="url(#shadow)"><path d="M190 270 C160 210 195 145 265 162 C295 120 365 130 382 182 C430 185 460 222 445 270 C420 336 315 337 285 310 C248 340 205 324 190 270Z" fill="#1f4d7a"/><rect x="390" y="220" width="250" height="26" rx="12" fill="#222"/><path d="M620 195 L700 205 L692 260 L616 246Z" fill="#111"/><rect x="275" y="230" width="95" height="34" rx="9" fill="#f4f4f4"/><rect x="300" y="180" width="70" height="22" rx="5" fill="#111"/><line x1="310" y1="210" x2="690" y2="214" stroke="#e6e6e6"/><line x1="310" y1="228" x2="690" y2="232" stroke="#e6e6e6"/><line x1="310" y1="246" x2="690" y2="250" stroke="#e6e6e6"/><circle cx="405" cy="285" r="12" fill="#9ed0ff"/></g><text x="42" y="440" fill="#fff8ea" font-size="34" font-family="Arial" font-weight="800">Fender Telecaster</text><text x="42" y="470" fill="#9ed0ff" font-size="18" font-family="Arial" font-weight="700">MR ToneWorks • solid-body electric guitar</text></svg>